<svg xmlns="http://www.w3.org/2000/svg" viewBox="0 0 1723 1212" width="1723" height="1212">
	<style>
		tspan { white-space:pre }
		.shp0 { fill: #ffffff } 
	</style>
	<g id="2nd part">
		<g id="BG">
			<path id="Shape 1 copy 2" class="shp0" d="M44 131C44 131 167.63 71.68 316 133C464.37 194.32 622.7 191.67 709 121C1029.7 -141.61 945.54 247.63 1361 89C1361 89 1549.04 36.68 1684 128L1684 1053C1684 1053 1655.57 1018.6 1516 906C1416.61 825.81 1387.87 760.52 1097 940C920.09 1049.16 808.05 875.08 536 1009C388.53 1081.59 377.53 1222.4 163 1138C-7.96 1070.74 44 992 44 992L44 131Z" />
		</g>
	</g>
</svg>