<svg xmlns="http://www.w3.org/2000/svg" viewBox="0 0 1722 1274" width="1722" height="1274">
	<style>
		tspan { white-space:pre }
		.shp0 { fill: #ffffff } 
	</style>
	<g id="2nd part">
		<g id="BG">
			<path id="Shape 1 copy" class="shp0" d="M45 188C45 188 168.63 128.68 317 190C465.37 251.32 623.23 218.65 707 145C763.95 94.94 846.23 -31.17 1083 131C1204.8 214.43 1251.04 84.9 1362 146C1362 146 1589.03 251.63 1685 118L1685 939C1685 939 1647.42 1067.67 1517 963C1446.03 906.04 1407.87 857.52 1117 1037C940.09 1146.16 791.22 928.43 537 1066C388.95 1146.12 374.53 1313.4 160 1229C-10.96 1161.74 45 1049 45 1049L45 188Z" />
		</g>
	</g>
</svg>